<svg width="24" height="24" viewBox="0 0 24 24" fill="none" xmlns="http://www.w3.org/2000/svg">
<path fill-rule="evenodd" clip-rule="evenodd" d="M13.7204 5.14698C13.4302 5.00577 12.8075 4.86578 12.0122 4.87547C11.1692 4.88706 10.3365 5.07368 9.66851 5.62427M13.7204 5.14698C14.47 5.51427 15.5625 6.23641 15.5625 7.68805C15.5625 9.28444 14.6384 10.0009 13.0462 11.0959C12.1825 11.6898 11.5753 12.3227 11.1925 13.0343C10.8063 13.7522 10.6875 14.4779 10.6875 15.188C10.6875 15.7058 11.1072 16.1255 11.625 16.1255C12.1428 16.1255 12.5625 15.7058 12.5625 15.188C12.5625 14.6963 12.6425 14.2968 12.8437 13.9226C13.0484 13.5421 13.4174 13.1162 14.1086 12.6408L14.1446 12.6161C15.6545 11.5779 17.4375 10.352 17.4375 7.68805C17.4375 5.07149 15.3986 3.88113 14.5443 3.46267L14.5435 3.46229L14.5427 3.46192C13.8942 3.14577 12.9482 2.98883 11.9885 3.00062L11.9879 3.00063L11.9872 3.00063C10.9076 3.01537 9.59462 3.25535 8.47592 4.17743L8.4759 4.17745C7.57568 4.91949 7.09685 5.76215 6.84501 6.42784C6.71958 6.75937 6.65014 7.04745 6.61164 7.25954C6.59236 7.36581 6.5807 7.45374 6.57368 7.51942C6.57016 7.55229 6.56779 7.57968 6.5662 7.60111C6.56541 7.61183 6.56481 7.62106 6.56436 7.62876C6.56413 7.63261 6.56395 7.63607 6.56379 7.63914L6.56358 7.64345L6.56349 7.64539L6.56345 7.6463C6.56343 7.64674 6.56341 7.64718 7.50002 7.68805L6.56341 7.64718C6.54084 8.16445 6.94187 8.60208 7.45915 8.62466C7.97311 8.64708 8.40846 8.2513 8.43614 7.73882C8.43635 7.73616 8.43691 7.72942 8.43804 7.71889C8.44058 7.69514 8.44595 7.65252 8.4565 7.59439C8.47769 7.47769 8.51917 7.30153 8.5987 7.0913C8.75677 6.67348 9.06403 6.12255 9.66849 5.62429" fill="white"/>
<path d="M11.625 20.25C12.4534 20.25 13.125 19.5784 13.125 18.75C13.125 17.9216 12.4534 17.25 11.625 17.25C10.7966 17.25 10.125 17.9216 10.125 18.75C10.125 19.5784 10.7966 20.25 11.625 20.25Z" fill="white"/>
</svg>
