<svg width="24" height="24" viewBox="0 0 24 24" fill="none" xmlns="http://www.w3.org/2000/svg">
<path fill-rule="evenodd" clip-rule="evenodd" d="M1.5 12C1.5 6.20126 6.20126 1.5 12 1.5C17.7987 1.5 22.5 6.20126 22.5 12C22.5 17.7987 17.7987 22.5 12 22.5C6.20126 22.5 1.5 17.7987 1.5 12ZM12 3C7.02968 3 3 7.02968 3 12C3 16.9703 7.02968 21 12 21C16.9703 21 21 16.9703 21 12C21 7.02968 16.9703 3 12 3Z" fill="white"/>
<path fill-rule="evenodd" clip-rule="evenodd" d="M7.68305 4.74161C8.7087 2.89517 10.2257 1.5 12.0002 1.5C13.7746 1.5 15.2916 2.89517 16.3173 4.74161C17.367 6.63139 18.0316 9.19725 18.0316 12C18.0316 14.8027 17.367 17.3686 16.3173 19.2584C15.2916 21.1048 13.7746 22.5 12.0002 22.5C10.2257 22.5 8.7087 21.1048 7.68305 19.2584C6.63332 17.3686 5.96875 14.8027 5.96875 12C5.96875 9.19725 6.63332 6.63139 7.68305 4.74161ZM8.99433 5.46999C8.08386 7.10907 7.46875 9.41822 7.46875 12C7.46875 14.5818 8.08386 16.8909 8.99433 18.53C9.92888 20.2124 11.0525 21 12.0002 21C12.9478 21 14.0714 20.2124 15.006 18.53C15.9164 16.8909 16.5316 14.5818 16.5316 12C16.5316 9.41822 15.9164 7.10907 15.006 5.46999C14.0714 3.78757 12.9478 3 12.0002 3C11.0525 3 9.92888 3.78757 8.99433 5.46999Z" fill="white"/>
<path fill-rule="evenodd" clip-rule="evenodd" d="M4.88852 5.06587C5.12831 4.72813 5.5965 4.64872 5.93425 4.88852C7.59971 6.07098 9.70449 6.78162 12.0002 6.78162C14.2959 6.78162 16.4007 6.07098 18.0662 4.88852C18.4039 4.64872 18.8721 4.72813 19.1119 5.06587C19.3517 5.40362 19.2723 5.87181 18.9346 6.1116C17.015 7.47445 14.6067 8.28162 12.0002 8.28162C9.39375 8.28162 6.98541 7.47445 5.06587 6.1116C4.72813 5.87181 4.64872 5.40362 4.88852 5.06587Z" fill="white"/>
<path fill-rule="evenodd" clip-rule="evenodd" d="M5.06587 17.8888C6.98541 16.5259 9.39375 15.7188 12.0002 15.7188C14.6067 15.7188 17.015 16.5259 18.9346 17.8888C19.2723 18.1286 19.3517 18.5968 19.1119 18.9345C18.8721 19.2722 18.4039 19.3516 18.0662 19.1119C16.4007 17.9294 14.2959 17.2188 12.0002 17.2188C9.70449 17.2188 7.59971 17.9294 5.93425 19.1119C5.5965 19.3516 5.12831 19.2722 4.88852 18.9345C4.64872 18.5968 4.72813 18.1286 5.06587 17.8888Z" fill="white"/>
<path fill-rule="evenodd" clip-rule="evenodd" d="M11.25 21.75V2.25H12.75V21.75H11.25Z" fill="white"/>
<path fill-rule="evenodd" clip-rule="evenodd" d="M2.25 11.25H21.75V12.75H2.25V11.25Z" fill="white"/>
</svg>
